<svg xmlns="http://www.w3.org/2000/svg" viewBox="0 0 48 48" role="img" aria-label="Poop day marker">
  <defs>
    <linearGradient id="m" x1="11" x2="37" y1="5" y2="43" gradientUnits="userSpaceOnUse">
      <stop stop-color="#C77A38"/>
      <stop offset="1" stop-color="#7B3E21"/>
    </linearGradient>
  </defs>
  <path fill="url(#m)" stroke="#6B351F" stroke-linejoin="round" stroke-width="1.5" d="M11 38c0-6 4-10 12-12-5-3-6-8-2-12 4-4 13-2 17 3 4 5 3 9-2 12 5 2 8 5 9 9 1 4-3 7-8 7H19c-5 0-8-3-8-7Z"/>
  <path fill="url(#m)" stroke="#6B351F" stroke-linejoin="round" stroke-width="1.5" d="M19 25c1-6 6-10 13-10s12 4 14 10c1 4-2 7-7 7H25c-4 0-7-3-6-7Z"/>
  <path fill="url(#m)" stroke="#6B351F" stroke-linejoin="round" stroke-width="1.5" d="M25 15c3-3 3-7 1-11 6 2 11 6 12 11 1 4-2 6-6 6h-5c-4 0-5-3-2-6Z"/>
  <circle cx="20" cy="32" r="3.5" fill="#1D2523"/>
  <circle cx="33" cy="32" r="3.5" fill="#1D2523"/>
  <circle cx="21.5" cy="30.8" r="1.1" fill="#fff"/>
  <circle cx="34.5" cy="30.8" r="1.1" fill="#fff"/>
  <path fill="none" stroke="#FF8A84" stroke-linecap="round" stroke-width="2" d="M23 38c3 2 6 2 9 0"/>
</svg>
